<?xml version="1.0" standalone="no"?>
<!DOCTYPE svg PUBLIC "-//W3C//DTD SVG 20010904//EN"
 "http://www.w3.org/TR/2001/REC-SVG-20010904/DTD/svg10.dtd">
<svg version="1.0" xmlns="http://www.w3.org/2000/svg"
 width="250.000000pt" height="250.000000pt" viewBox="0 0 250.000000 250.000000"
 preserveAspectRatio="xMidYMid meet">
<metadata>
Created by potrace 1.11, written by Peter Selinger 2001-2013
</metadata>
<g transform="translate(0.000000,250.000000) scale(0.100000,-0.100000)"
fill="#000000" stroke="none">
<path d="M1223 2417 c-13 -5 -23 -14 -23 -19 0 -5 -13 -7 -30 -3 -22 5 -38 1
-58 -14 -17 -12 -33 -16 -41 -12 -19 12 -54 1 -69 -21 -7 -10 -18 -15 -24 -12
-22 14 -70 5 -84 -15 -11 -15 -20 -18 -37 -12 -32 12 -59 5 -79 -19 -16 -19
-22 -21 -50 -11 -25 9 -36 8 -55 -5 -13 -8 -27 -22 -30 -29 -4 -11 -10 -12
-23 -5 -44 23 -110 0 -110 -39 0 -8 -7 -8 -27 3 -37 18 -80 12 -104 -15 -10
-12 -19 -26 -19 -30 0 -5 -15 -1 -34 8 -47 22 -82 11 -108 -34 -12 -20 -24
-31 -26 -25 -2 6 -19 16 -38 22 -60 20 -114 -18 -114 -80 0 -23 47 -80 66 -80
18 0 18 -14 0 -29 -34 -28 -17 -102 28 -122 23 -11 24 -14 11 -33 -28 -39 -8
-103 36 -118 9 -3 9 -9 0 -25 -18 -35 -13 -68 15 -96 23 -23 25 -30 16 -55
-11 -31 6 -75 33 -85 12 -5 13 -11 3 -32 -10 -22 -9 -32 7 -61 10 -19 22 -34
27 -34 5 0 6 -6 1 -12 -18 -30 -6 -73 24 -91 10 -6 11 -12 4 -21 -13 -16 -6
-54 13 -75 9 -10 14 -30 12 -48 -3 -20 2 -38 13 -50 9 -10 15 -26 13 -36 -7
-35 7 -65 34 -71 16 -4 29 -17 35 -36 7 -20 19 -31 39 -35 20 -4 29 -14 33
-35 5 -25 29 -42 60 -45 4 0 7 -3 7 -8 -1 -14 31 -67 40 -68 6 -1 15 -3 20 -4
6 -1 15 -3 20 -4 6 0 10 -9 10 -19 0 -29 29 -62 54 -62 18 0 26 -7 31 -27 10
-40 34 -63 67 -63 15 0 27 -3 27 -7 -8 -49 27 -93 73 -93 23 0 28 -4 28 -24 0
-13 3 -32 6 -41 8 -20 52 -42 81 -39 19 1 22 -3 19 -21 -9 -50 55 -108 99 -91
11 4 15 -2 16 -19 1 -14 3 -29 4 -35 1 -5 3 -14 4 -18 3 -24 45 -52 76 -52 52
0 96 57 83 108 -4 15 0 17 22 14 15 -2 37 1 49 7 27 15 54 67 46 90 -4 15 1
18 29 18 44 0 64 16 72 60 4 19 12 36 18 38 6 2 23 6 37 9 27 6 61 59 52 81
-2 8 6 13 23 13 32 0 74 42 74 73 0 13 7 19 23 19 29 0 57 29 57 59 0 16 8 23
30 27 35 7 48 21 53 55 2 13 8 24 13 24 32 2 55 20 61 46 3 18 12 29 23 29 18
0 43 24 53 52 4 10 13 18 20 18 24 0 49 36 45 67 -2 17 4 35 15 46 13 13 17
28 13 49 -3 22 1 39 15 56 13 17 17 34 14 54 -4 22 -1 34 12 43 11 8 17 27 17
57 1 28 7 51 19 62 19 19 22 48 7 76 -8 14 -5 21 14 33 29 19 38 58 20 92 -11
21 -10 25 7 30 30 10 49 64 34 95 -12 23 -10 28 16 54 32 33 37 70 14 103 -14
20 -14 22 4 28 48 15 71 89 38 122 -14 14 -12 19 24 53 59 56 51 116 -19 141
-23 8 -38 7 -67 -5 -46 -20 -45 -20 -45 3 0 11 -13 25 -34 35 -41 19 -53 20
-86 2 -23 -13 -26 -12 -42 15 -17 28 -35 34 -83 29 -11 -1 -25 -6 -31 -11 -7
-5 -19 2 -33 21 -23 32 -64 40 -100 20 -14 -7 -21 -4 -31 15 -7 14 -22 26 -32
26 -10 1 -24 2 -30 3 -7 1 -20 -1 -29 -6 -11 -5 -22 -2 -30 8 -20 25 -56 35
-84 24 -19 -7 -27 -5 -37 9 -16 22 -56 33 -78 21 -13 -7 -23 -3 -39 14 -19 20
-27 23 -54 15 -25 -7 -33 -5 -44 10 -9 13 -23 18 -45 17 -18 -1 -46 5 -63 15
-23 13 -35 15 -52 6z"/>
</g>
</svg>
