<svg version="1.1" id="Layer_1" xmlns="http://www.w3.org/2000/svg" xmlns:xlink="http://www.w3.org/1999/xlink" x="0px" y="0px"
	 viewBox="0 0 436.202 424.975" enable-background="new 0 0 436.202 424.975"
	 xml:space="preserve">
<g>
	<g>
		<path fill-rule="evenodd" clip-rule="evenodd" fill="#BAD657" d="M259.145,54.967c7.493,1.698,14.986,3.395,22.48,5.094
			c2.426,0.55,4.875,1.015,7.271,1.675c5.261,1.451,8.055,5.799,6.866,10.511c-1.217,4.819-5.556,7.496-10.843,6.35
			c-13.156-2.852-26.28-5.851-39.418-8.788c-5.141-1.15-10.312-2.18-15.419-3.465c-9.578-2.409-12.898-12.047-6.958-19.851
			c10.546-13.853,21.071-27.72,31.597-41.587c3.906-5.146,8.972-6.349,13.211-3.107c4.3,3.286,4.603,8.348,0.705,13.535
			c-4.569,6.082-9.224,12.098-13.812,18.166c-0.661,0.875-1.156,1.876-2.343,3.833c4.495-1.167,7.931-2.09,11.385-2.95
			c18.74-4.663,37.67-7.128,56.991-4.674c42.879,5.446,68.736,32.117,73.597,74.449c3.158,27.53-2.582,53.897-11.835,79.633
			c-13.155,36.59-33.117,69.307-57.223,99.612c-26.411,33.21-56.794,62.299-91.559,86.626
			c-35.673,24.963-73.866,44.575-117.252,52.359c-18.179,3.26-36.389,3.846-54.487-0.623C28.731,413.53,9.37,391.832,2.527,358.686
			c-5.925-28.706-0.739-56.477,8.394-83.742c2.088-6.233,4.557-12.348,7.06-18.433c2.224-5.406,6.89-7.565,11.587-5.676
			c4.75,1.911,6.695,6.678,4.479,12.091c-6.391,15.617-11.747,31.533-14.384,48.249c-3.41,21.604-3.083,42.752,6.331,63.208
			c5.988,13.013,15.766,18.96,29.725,19.138c17.071,0.216,32.91-4.887,48.396-11.244c30.402-12.479,57.713-30.203,83.7-50.092
			c35.364-27.066,67.351-57.706,96.084-91.699c25.768-30.484,48.904-62.769,65.423-99.357c7.128-15.791,13.029-32.001,14.431-49.46
			c0.698-8.701,0.389-17.425-4.555-25.027c-2.007-3.085-4.786-5.987-7.847-8.017c-16.771-11.119-35.641-13.764-55.123-11.83
			c-12.446,1.236-24.738,4.016-37.099,6.105C259.134,53.589,259.139,54.278,259.145,54.967z"/>
		<path fill-rule="evenodd" clip-rule="evenodd" fill="#BAD657" d="M193.86,311.633c-16.579,11.63-32.394,22.646-48.099,33.813
			c-2.684,1.91-4.084,0.192-5.579-1.276c-15.128-14.87-30.861-29.192-45.15-44.833c-23.487-25.71-42.952-54.385-58.278-85.729
			c-13.075-26.74-22.676-54.563-24.946-84.504c-1.438-18.961,0.454-37.489,8.638-54.897c11.443-24.34,31.608-37.289,57.247-42.521
			c25.327-5.167,50.127-1.663,74.525,5.631c8.671,2.593,17.145,5.882,25.624,9.08c7.113,2.684,9.714,7.318,7.467,12.558
			c-2.196,5.12-7.031,6.446-13.832,3.645c-21.946-9.04-44.521-15.396-68.446-15.714c-15.587-0.207-30.479,2.604-44.451,10.052
			c-9.565,5.099-14.44,12.819-15.552,23.325c-1.552,14.656,2.015,28.532,6.757,42.128c10.501,30.11,26.851,57.089,45.401,82.786
			c26.152,36.226,56.388,68.779,89.636,98.571C187.409,306.066,190.056,308.317,193.86,311.633z"/>
		<path fill-rule="evenodd" clip-rule="evenodd" fill="#BAD657" d="M398.878,281.733c1.214,4.711,2.16,8.315,3.069,11.931
			c5.082,20.207,7.474,40.616,3.884,61.342c-7.053,40.745-33.781,64.127-73.896,68.693c-27.551,3.136-53.925-2.644-79.605-11.996
			c-10.422-3.796-20.466-8.635-30.666-13.031c-1.165-0.503-2.238-1.218-4.086-2.239c4.951-3.175,9.425-5.821,13.66-8.803
			c10.048-7.072,20.158-14.076,29.864-21.598c3.146-2.438,5.219-2.432,8.385-0.592c17.002,9.87,34.72,18.195,53.693,23.565
			c10.896,3.083,21.977,5.117,33.388,3.762c10.214-1.215,17.854-5.854,23.094-15.235c9.341-16.723,11.718-34.636,9.606-53.107
			c-1.333-11.672-4.641-23.12-7.094-34.662c-0.075-0.352-0.496-0.63-1.014-1.254c-1.794,8.037-3.509,15.749-5.239,23.457
			c-0.545,2.426-0.945,4.906-1.741,7.251c-1.544,4.553-6.145,6.991-10.449,5.767c-4.454-1.267-7.282-5.537-6.264-10.178
			c4.111-18.725,8.211-37.453,12.637-56.104c2.138-9.008,12.031-12.111,19.463-6.473c14.105,10.701,28.201,21.415,42.281,32.149
			c4.741,3.614,5.696,8.891,2.441,13.01c-3.17,4.01-8.195,4.431-12.838,0.947c-6.202-4.653-12.333-9.401-18.52-14.077
			C401.967,283.527,400.873,282.966,398.878,281.733z"/>
	</g>
	<g>
		<path fill-rule="evenodd" clip-rule="evenodd" fill="#FFFFFF" d="M133.574,199.047c54.801,0,109.372,0,164.321,0
			c0.111,1.729,0.291,3.182,0.285,4.633c-0.134,32.652,0.101,65.314-0.574,97.956c-0.443,21.467-11.796,37.396-28.906,49.33
			c-34.784,24.262-86.199,20.516-115.943-8.09c-14.084-13.545-19.722-30.248-19.604-49.477c0.188-30.653,0.029-61.307,0.039-91.963
			C133.192,200.645,133.439,199.854,133.574,199.047z"/>
		<path fill-rule="evenodd" clip-rule="evenodd" fill="#BAD657" d="M212.869,107.708c0,28.237,0,56.477,0,85.125
			c-26.417,0-52.769,0-79.12,0C130.841,137.725,157.053,107.423,212.869,107.708z"/>
		<path fill-rule="evenodd" clip-rule="evenodd" fill="#FFFFFF" d="M299.034,192.965c-26.914,0-52.501,0-78.539,0
			c0-28.419,0-56.768,0-85.654c13.218,0.267,26.073,2.051,38.404,6.919c21.362,8.435,32.73,24.9,36.594,46.831
			C297.323,171.447,297.866,182.061,299.034,192.965z"/>
	</g>
</g>
</svg>
