<svg version="1.1" id="Layer_1" xmlns="http://www.w3.org/2000/svg" xmlns:xlink="http://www.w3.org/1999/xlink" x="0px" y="0px"
	 viewBox="0 0 604.62 604.633" enable-background="new 0 0 604.62 604.633"
	 xml:space="preserve">
<g>
	<path fill-rule="evenodd" clip-rule="evenodd" fill="#FFFFFF" d="M220.304,264.323c54.801,0,109.372,0,164.321,0
		c0.111,1.729,0.291,3.182,0.285,4.633c-0.134,32.652,0.101,65.314-0.574,97.957c-0.443,21.467-11.796,37.396-28.906,49.33
		c-34.784,24.262-86.199,20.516-115.943-8.09c-14.084-13.545-19.722-30.248-19.604-49.477c0.188-30.654,0.029-61.309,0.039-91.965
		C219.922,265.92,220.169,265.129,220.304,264.323z"/>
	<path fill-rule="evenodd" clip-rule="evenodd" fill="#FFFFFF" d="M299.599,172.983c0,28.237,0,56.477,0,85.125
		c-26.417,0-52.769,0-79.12,0C217.571,203,243.783,172.698,299.599,172.983z"/>
	<path fill-rule="evenodd" clip-rule="evenodd" fill="#BAD657" d="M385.764,258.241c-26.914,0-52.501,0-78.539,0
		c0-28.419,0-56.768,0-85.654c13.218,0.267,26.073,2.051,38.404,6.919c21.362,8.435,32.73,24.9,36.594,46.831
		C384.053,236.723,384.596,247.336,385.764,258.241z"/>
	<path fill-rule="evenodd" clip-rule="evenodd" fill="#BAD657" d="M508.44,203.877c31.925,32.503,63.849,65.006,96.18,97.924
		c-32.594,33.234-64.947,66.225-98.227,100.158c0-18.549,0-35.877,0-53.816c-31.987,0-63.355,0-94.935,0c0-30.844,0-61.068,0-91.682
		c31.861,0,63.449,0,95.602,0c0-17.581,0-34.786,0-51.989C507.521,204.273,507.98,204.075,508.44,203.877z"/>
	<path fill-rule="evenodd" clip-rule="evenodd" fill="#BAD657" d="M193.139,256.1c0,31.059,0,61.16,0,92.025
		c-2.502,0-4.774,0.002-7.047,0c-27.155-0.01-54.311-0.016-81.465-0.033c-6.396-0.004-6.371-0.021-6.364,6.586
		c0.015,13.66,0.005,27.32-0.012,40.98c-0.001,1.455-0.122,2.91-0.259,5.992C64.891,367.924,32.696,335.122,0,301.807
		c32.12-32.711,64.136-65.317,96.896-98.682c0,18.055,0,35.206,0,52.975C129.166,256.1,160.868,256.1,193.139,256.1z"/>
	<path fill-rule="evenodd" clip-rule="evenodd" fill="#BAD657" d="M256.271,138.814c0-14.12,0-27.524,0-41.415
		c-17.631,0-34.839,0-53.629,0C236.286,64.353,268.877,32.34,301.802,0c33.1,32.473,65.991,64.741,99.584,97.698
		c-2.07,0.229-3.245,0.469-4.42,0.471c-14.658,0.026-29.319,0.163-43.974-0.075c-4.057-0.066-5.125,1.216-5.02,5.122
		c0.266,9.821,0.109,19.653,0.122,29.481c0.002,1.771,0,3.542,0,6.079C317.248,124.607,286.969,124.923,256.271,138.814z"/>
	<path fill-rule="evenodd" clip-rule="evenodd" fill="#BAD657" d="M301.829,604.633c-33.058-32.457-65.561-64.371-98.97-97.174
		c18.457,0,35.648,0,53.277,0c0-13.926,0-27.346,0-41.613c15.085,6.424,29.989,10.529,45.869,10.539
		c15.884,0.01,30.878-3.664,46.021-10.588c0,13.891,0,26.93,0,40.438c17.835,0,35.07,0,52.307,0c0.21,0.375,0.42,0.75,0.63,1.123
		C368.04,539.665,335.118,571.969,301.829,604.633z"/>
</g>
</svg>
